<svg width="105" height="105" viewBox="0 0 105 105" fill="none" xmlns="http://www.w3.org/2000/svg">
<g clip-path="url(#clip0_97_128)">
<path d="M58.1656 32.7302L87.9506 2.94518C92.12 -1.22419 99.0369 -0.966069 102.865 3.71518C106.194 7.78393 105.481 13.8521 101.763 17.5708L72.3844 46.9489C68.8275 50.5058 64.0062 52.5008 58.9794 52.5008H54.8013C53.5938 52.5008 52.6138 51.5208 52.6138 50.3133V46.1352C52.6138 41.1083 54.6131 36.2827 58.1656 32.7302ZM98.4375 37.1883C94.815 37.1883 91.875 40.1239 91.875 43.7508V63.4383C91.875 69.4714 86.9706 74.3758 80.9375 74.3758H73.4475C71.9206 74.3758 70.4419 74.9096 69.265 75.8808L52.5175 89.7364L36.1112 75.9202C34.93 74.9227 33.4338 74.3758 31.885 74.3758H24.0625C18.0294 74.3758 13.125 69.4714 13.125 63.4383V24.0633C13.125 18.0346 18.0294 13.1258 24.0625 13.1258H63.4375C67.06 13.1258 70 10.1902 70 6.56331C70 2.93643 67.06 0.00080614 63.4375 0.00080614H24.0625C10.7975 0.00080614 0 10.7939 0 24.0633V63.4383C0 76.7033 10.7975 87.5008 24.0625 87.5008H29.4875L45.2331 100.757C47.3287 102.621 49.9581 103.54 52.5612 103.54C55.1075 103.54 57.6275 102.656 59.5875 100.91L75.81 87.5008H80.9375C94.2025 87.5008 105 76.7033 105 63.4383V43.7508C105 40.1239 102.06 37.1883 98.4375 37.1883Z" fill="#5274EF"/>
</g>
<defs>
<clipPath id="clip0_97_128">
<rect width="105" height="105" fill="white"/>
</clipPath>
</defs>
</svg>
