<svg width="62" height="61" viewBox="0 0 62 61" fill="none" xmlns="http://www.w3.org/2000/svg">
<rect width="61.9153" height="60.3544" rx="30.1772" fill="#F1CD1B" fill-opacity="0.45"/>
<rect x="5.20288" y="4.68265" width="50.9891" height="50.4688" rx="25.2344" fill="#F1CD1B"/>
<g clip-path="url(#clip0_15_124)">
<path d="M42.6493 25.7234L34.9002 17.9754C32.3725 15.4466 28.2592 15.4466 25.7304 17.9754L17.9813 25.7234C15.4537 28.2522 15.4537 32.3655 17.9813 34.8931L25.7304 42.6423C26.9942 43.9061 28.6542 44.5368 30.3153 44.5368C31.9764 44.5368 33.6363 43.9049 34.9002 42.6423L42.6493 34.8931C45.1769 32.3643 45.1769 28.251 42.6493 25.7234ZM40.1488 32.3926L32.3996 40.1417C31.2502 41.2924 29.3792 41.29 28.2309 40.1417L20.4818 32.3926C19.3324 31.2431 19.3324 29.3722 20.4818 28.2239L28.2309 20.476C29.3804 19.3265 31.2514 19.3265 32.3996 20.476L40.1476 28.2239C41.2971 29.3734 41.2982 31.2443 40.1488 32.3926ZM32.0837 35.6194C32.0837 36.5955 31.2915 37.3878 30.3153 37.3878C29.3391 37.3878 28.5469 36.5955 28.5469 35.6194C28.5469 34.6432 29.3391 33.8509 30.3153 33.8509C31.2915 33.8509 32.0837 34.6432 32.0837 35.6194ZM32.0837 25.009V30.9036C32.0837 31.8798 31.2926 32.672 30.3153 32.672C29.338 32.672 28.5469 31.8798 28.5469 30.9036V25.009C28.5469 24.0328 29.338 23.2406 30.3153 23.2406C31.2926 23.2406 32.0837 24.0328 32.0837 25.009Z" fill="white"/>
</g>
<defs>
<clipPath id="clip0_15_124">
<rect width="28.2944" height="28.2944" fill="white" transform="translate(16.1682 16.1682)"/>
</clipPath>
</defs>
</svg>
