<svg width="68" height="66" viewBox="0 0 68 66" fill="none" xmlns="http://www.w3.org/2000/svg">
<g clip-path="url(#clip0_97_218)">
<path d="M57.7688 9.075C57.0673 7.22302 55.798 5.62404 54.132 4.49324C52.466 3.36244 50.483 2.75407 48.45 2.75H19.55C17.5359 2.74848 15.5692 3.34345 13.9127 4.45546C12.2561 5.56746 10.9886 7.14356 10.2793 8.97325L4.16218 23.925C1.40435 31.2675 -0.00440726 39.0228 1.03574e-05 46.838V55H8.50001V63.25H19.8333V55H48.1667V63.25H59.5V55H68V46.838C68.0015 38.9809 66.5782 31.1849 63.7953 23.8068L57.7688 9.075ZM48.1667 42.625C48.1667 41.531 48.6144 40.4818 49.4115 39.7082C50.2085 38.9346 51.2895 38.5 52.4167 38.5C53.5438 38.5 54.6249 38.9346 55.4219 39.7082C56.2189 40.4818 56.6667 41.531 56.6667 42.625C56.6667 43.719 56.2189 44.7682 55.4219 45.5418C54.6249 46.3154 53.5438 46.75 52.4167 46.75C51.2895 46.75 50.2085 46.3154 49.4115 45.5418C48.6144 44.7682 48.1667 43.719 48.1667 42.625ZM12.1012 26.8538L18.224 11.9048C18.3231 11.6404 18.5034 11.4119 18.7405 11.2501C18.9776 11.0883 19.2602 11.001 19.55 11H48.45C48.7603 11.0075 49.0602 11.1099 49.307 11.2926C49.5537 11.4753 49.7347 11.729 49.8242 12.0175L55.8535 26.741C56.287 27.8988 56.661 29.0703 57.0038 30.25H10.9877C11.3333 29.106 11.6847 27.9703 12.1012 26.8538ZM15.5833 46.75C14.4562 46.75 13.3752 46.3154 12.5781 45.5418C11.7811 44.7682 11.3333 43.719 11.3333 42.625C11.3333 41.531 11.7811 40.4818 12.5781 39.7082C13.3752 38.9346 14.4562 38.5 15.5833 38.5C16.7105 38.5 17.7915 38.9346 18.5885 39.7082C19.3856 40.4818 19.8333 41.531 19.8333 42.625C19.8333 43.719 19.3856 44.7682 18.5885 45.5418C17.7915 46.3154 16.7105 46.75 15.5833 46.75Z" fill="black"/>
</g>
<defs>
<clipPath id="clip0_97_218">
<rect width="68" height="66" fill="white"/>
</clipPath>
</defs>
</svg>
