<svg width="52" height="52" viewBox="0 0 52 52" fill="none" xmlns="http://www.w3.org/2000/svg">
<path d="M5.47695 44.4222C5.0197 44.4221 4.5676 44.3256 4.15019 44.139C3.73278 43.9523 3.35946 43.6796 3.05462 43.3388C1.78273 41.9282 0.8687 40.2324 0.389622 38.3945C-0.263995 35.8388 -0.0919795 33.1417 0.881029 30.6898C1.85404 28.2378 3.57811 26.1566 5.80629 24.7445C4.35845 21.4624 3.94943 17.8159 4.63412 14.2947C5.29231 10.7169 7.05233 7.43425 9.66801 4.90598C12.2837 2.37772 15.6242 0.73024 19.2223 0.193985C23.5047 -0.444635 27.8728 0.505672 31.5028 2.8657C35.1329 5.22573 37.774 8.83237 38.9281 13.0055C43.3865 14.233 47.1962 17.1396 49.5578 21.1153C49.9549 21.8557 50.0499 22.7212 49.8227 23.5301C49.5956 24.339 49.064 25.0285 48.3395 25.454C47.615 25.8795 46.7538 26.0078 45.9367 25.8121C45.1197 25.6164 44.4101 25.1118 43.957 24.4043C43.0868 22.9387 41.8967 21.6886 40.4754 20.7476C39.0542 19.8067 37.4387 19.1991 35.7496 18.9703C35.0423 18.8763 34.3856 18.552 33.8809 18.0477C33.3761 17.5433 33.0514 16.8869 32.9568 16.1797C32.7629 14.7189 32.2799 13.3115 31.5358 12.0395C30.7918 10.7676 29.8017 9.65673 28.6235 8.77182C27.4253 7.86903 26.0591 7.21431 24.6048 6.84599C23.1505 6.47768 21.6374 6.40317 20.154 6.62682C17.8976 6.96976 15.8047 8.009 14.1678 9.59934C12.5308 11.1897 11.4316 13.2516 11.0236 15.4972C10.5459 17.9237 10.8929 20.4404 12.0095 22.6472C12.6798 23.9035 12.8248 25.3743 12.4126 26.7373C12.0003 28.1003 11.0645 29.2443 9.81029 29.9185C8.58648 30.53 7.60925 31.5425 7.0415 32.7872C6.47376 34.0319 6.3498 35.4336 6.69029 36.7587C6.90505 37.5941 7.31916 38.3651 7.89712 39.0055C8.31525 39.473 8.58919 40.0515 8.68587 40.6712C8.78255 41.2909 8.69786 41.9253 8.442 42.4979C8.18615 43.0706 7.77006 43.557 7.24395 43.8984C6.71783 44.2398 6.10415 44.4217 5.47695 44.4222ZM40.8153 52.0055C41.6226 51.9903 42.4262 51.8931 43.2138 51.7152C45.6695 51.1759 47.8711 49.8231 49.4618 47.8761C51.0525 45.929 51.939 43.5018 51.9776 40.9879C52.0162 38.474 51.2047 36.0207 49.6746 34.0257C48.1445 32.0307 45.9854 30.6109 43.5475 29.9965C43.2976 29.9481 43.0531 29.8755 42.8173 29.7798C41.6368 27.0545 39.5886 24.7957 36.9915 23.3548C34.3943 21.914 31.3938 21.372 28.4566 21.813C25.3932 22.3013 22.5987 23.8501 20.5608 26.1889C18.523 28.5277 17.3714 31.5079 17.307 34.6093C17.2937 35.2977 17.3357 35.986 17.4326 36.6677C15.9574 37.4072 14.7442 38.5807 13.956 40.0305C13.1678 41.4803 12.8426 43.1367 13.0241 44.7768C13.2056 46.4169 13.885 47.9622 14.9711 49.2045C16.0571 50.4469 17.4976 51.3269 19.0988 51.726C19.7697 51.8978 20.4582 51.9916 21.1506 52.0055H40.8153ZM36.833 32.3192C37.2699 33.3544 37.9639 34.261 38.8492 34.953C39.7346 35.645 40.782 36.0994 41.8921 36.2733C42.9287 36.5104 43.853 37.0952 44.5111 37.9305C45.1693 38.7657 45.5217 39.8011 45.5098 40.8644C45.4979 41.9277 45.1224 42.9549 44.4457 43.7752C43.769 44.5955 42.832 45.1595 41.7903 45.3733C41.4495 45.4518 41.1019 45.4968 40.7525 45.5077H21.2373C20.8726 45.4704 20.5239 45.3389 20.2253 45.1262C19.9268 44.9135 19.6886 44.6268 19.5343 44.2943C19.2678 43.302 20.1843 42.5068 20.8343 42.236C21.9792 41.7562 22.9195 40.8899 23.4912 39.788C24.0629 38.6861 24.2299 37.4185 23.963 36.2062C23.8562 35.7226 23.8074 35.228 23.8178 34.7328C23.8542 33.1764 24.428 31.6805 25.4418 30.4989C26.4555 29.3173 27.8468 28.5228 29.3796 28.2502C29.7204 28.1998 30.0643 28.1738 30.4088 28.1722C31.7682 28.1574 33.102 28.5427 34.2442 29.28C35.3864 30.0173 36.2867 31.0742 36.833 32.3192Z" fill="#5867B4"/>
</svg>
