<svg width="51" height="51" viewBox="0 0 51 51" fill="none" xmlns="http://www.w3.org/2000/svg">
<path d="M4.22744 37.902C3.64922 37.9026 3.08173 37.7459 2.58574 37.4487C2.08976 37.1514 1.68396 36.7249 1.41181 36.2147C0.145818 33.8149 -0.285516 31.0619 0.1858 28.3898C0.657117 25.7178 2.00428 23.2785 4.01494 21.4566C4.12741 21.3676 4.21722 21.2532 4.27705 21.1228C4.33688 20.9925 4.36503 20.8498 4.35919 20.7065C3.95994 18.6367 3.93546 16.512 4.28694 14.4335C4.86894 10.9373 6.51278 7.705 8.99527 5.17537C11.4778 2.64574 14.6786 0.941386 18.1632 0.293732C21.9466 -0.408362 25.8559 0.156322 29.286 1.90036C32.7161 3.6444 35.4756 6.47053 37.1373 9.94123C37.2028 10.076 37.2997 10.1931 37.4199 10.2826C37.5401 10.3721 37.68 10.4314 37.8279 10.4555C40.4639 11.0103 42.9238 12.2026 44.9922 13.9281C47.0607 15.6537 48.6748 17.8599 49.6932 20.3536C50.7117 22.8474 51.1034 25.5528 50.8342 28.233C50.565 30.9133 49.6431 33.4867 48.1491 35.7281C47.9269 36.0913 47.6343 36.4062 47.2885 36.6545C46.9427 36.9027 46.5506 37.0791 46.1355 37.1734C45.7203 37.2676 45.2905 37.2778 44.8714 37.2032C44.4523 37.1286 44.0524 36.9708 43.6952 36.7392C43.3381 36.5075 43.031 36.2066 42.792 35.8544C42.553 35.5021 42.387 35.1055 42.3038 34.688C42.2206 34.2705 42.2219 33.8406 42.3075 33.4236C42.3932 33.0066 42.5615 32.611 42.8026 32.2601C43.7397 30.8936 44.3253 29.317 44.5075 27.6701C44.6898 26.0232 44.4629 24.3567 43.8472 22.8184C43.2314 21.28 42.2458 19.9173 40.9775 18.851C39.7092 17.7846 38.1975 17.0476 36.5763 16.7051C35.4526 16.4892 34.3957 16.0109 33.4918 15.3093C32.5878 14.6077 31.8623 13.7026 31.3743 12.6676C30.375 10.5536 28.7288 8.81244 26.6741 7.69629C24.6193 6.58015 22.2627 6.14693 19.9453 6.45935C17.628 6.77177 15.4702 7.81362 13.7844 9.43406C12.0985 11.0545 10.9722 13.1694 10.5684 15.4726C10.3401 16.802 10.3516 18.1614 10.6024 19.4867C10.8184 20.7051 10.7194 21.9584 10.3147 23.1277C9.9101 24.297 9.21327 25.3435 8.29044 26.1677C7.32226 27.0319 6.67207 28.196 6.44398 29.4736C6.2159 30.7512 6.42311 32.0684 7.03244 33.2142C7.29123 33.6994 7.42013 34.2432 7.40661 34.7928C7.3931 35.3425 7.23762 35.8793 6.9553 36.3512C6.67298 36.823 6.27341 37.2137 5.79542 37.4855C5.31743 37.7572 4.77727 37.9007 4.22744 37.902ZM27.6024 47.8066V39.3066C27.6024 38.4612 27.2666 37.6505 26.6688 37.0527C26.0711 36.4549 25.2603 36.1191 24.4149 36.1191C23.5696 36.1191 22.7588 36.4549 22.161 37.0527C21.5633 37.6505 21.2274 38.4612 21.2274 39.3066V47.8066C21.2274 48.652 21.5633 49.4627 22.161 50.0605C22.7588 50.6583 23.5696 50.9941 24.4149 50.9941C25.2603 50.9941 26.0711 50.6583 26.6688 50.0605C27.2666 49.4627 27.6024 48.652 27.6024 47.8066ZM16.9774 43.5566V35.0566C16.9774 34.2112 16.6416 33.4005 16.0438 32.8027C15.4461 32.2049 14.6353 31.8691 13.7899 31.8691C12.9446 31.8691 12.1338 32.2049 11.536 32.8027C10.9383 33.4005 10.6024 34.2112 10.6024 35.0566V43.5566C10.6024 44.402 10.9383 45.2127 11.536 45.8105C12.1338 46.4083 12.9446 46.7441 13.7899 46.7441C14.6353 46.7441 15.4461 46.4083 16.0438 45.8105C16.6416 45.2127 16.9774 44.402 16.9774 43.5566ZM38.2274 43.5566V35.0566C38.2274 34.2112 37.8916 33.4005 37.2938 32.8027C36.6961 32.2049 35.8853 31.8691 35.0399 31.8691C34.1946 31.8691 33.3838 32.2049 32.786 32.8027C32.1883 33.4005 31.8524 34.2112 31.8524 35.0566V43.5566C31.8524 44.402 32.1883 45.2127 32.786 45.8105C33.3838 46.4083 34.1946 46.7441 35.0399 46.7441C35.8853 46.7441 36.6961 46.4083 37.2938 45.8105C37.8916 45.2127 38.2274 44.402 38.2274 43.5566Z" fill="#5867B4"/>
</svg>
