<svg width="1440" height="416" viewBox="0 0 1440 416" fill="none" xmlns="http://www.w3.org/2000/svg">
<path d="M0.0304309 341.427C-2.13623 291.261 111.731 184.027 234.53 148.427C388.03 103.927 482.031 124.927 531.53 187.927C581.03 250.927 575.03 351.427 408.53 366.427C241.054 381.515 558.03 -0.572813 668.53 45.9272C779.03 92.4272 751.03 470.427 970.529 351.427C1146.13 256.227 1149.36 176.427 1129.03 148.427C1108.2 113.261 1049.33 87.8272 980.529 267.427C911.73 447.027 1359.2 342.261 1591.53 267.427L1642.53 118.427" stroke="#5274EF" stroke-width="83"/>
<path d="M0.0304309 341.427C-2.13623 291.261 111.731 184.027 234.53 148.427C388.03 103.927 482.031 124.927 531.53 187.927C581.03 250.927 575.03 351.427 408.53 366.427C241.054 381.515 558.03 -0.572813 668.53 45.9272C779.03 92.4272 751.03 470.427 970.529 351.427C1146.13 256.227 1149.36 176.427 1129.03 148.427C1108.2 113.261 1049.33 87.8272 980.529 267.427C911.73 447.027 1359.2 342.261 1591.53 267.427L1642.53 118.427" stroke="#6584F4" stroke-width="11" stroke-dasharray="70 70"/>
</svg>
