<svg width="51" height="51" viewBox="0 0 51 51" fill="none" xmlns="http://www.w3.org/2000/svg">
<g clip-path="url(#clip0_150_19)">
<path d="M47.105 28.6424L41.9018 29.8824C41.2472 30.049 40.6211 30.3122 40.0439 30.6632L35.812 28.0648C36.2691 26.3857 36.2691 24.6148 35.812 22.9357L40.0439 20.3373C40.6211 20.6883 41.2472 20.9515 41.9018 21.1181C41.9018 21.1181 47.5979 22.4448 47.8434 22.4448C49.5962 22.4281 51.0036 20.9935 50.9868 19.2406C50.973 17.7928 49.9811 16.5378 48.5755 16.19L43.3638 14.9436C43.2455 14.9149 43.1443 14.8382 43.0845 14.7321C43.0205 14.63 43.0007 14.5063 43.0295 14.3893L44.2695 9.18403C44.7767 7.50611 43.8277 5.73466 42.1498 5.22745C40.4719 4.72023 38.7004 5.66921 38.1932 7.34713C38.1556 7.47155 38.1257 7.59805 38.1036 7.72615L36.8636 12.9314C36.7182 13.5838 36.6704 14.254 36.7219 14.9204L32.49 17.5294C31.4021 16.5926 30.134 15.8882 28.7638 15.46V10.4769C29.3643 10.1726 29.9151 9.7787 30.3973 9.30884L34.1827 5.52548C35.4221 4.28554 35.4216 2.27572 34.1816 1.03648C32.9417 -0.202859 30.9319 -0.202361 29.6926 1.03758L25.9093 4.82293C25.7342 4.99824 25.4502 4.99844 25.2749 4.82333L25.2745 4.82293L21.4869 1.03748C20.247 -0.20246 18.2368 -0.20246 16.9968 1.03748C15.7569 2.27741 15.7569 4.28763 16.9968 5.52757L20.7823 9.31093C21.2646 9.77999 21.8154 10.1732 22.4158 10.4769V15.46C21.0485 15.8921 19.7841 16.5992 18.7001 17.5379L14.4576 14.9204C14.5106 14.2492 14.4628 13.5737 14.3158 12.9166L13.0759 7.72615C12.6968 6.01476 11.002 4.93469 9.29065 5.31381C7.57926 5.69292 6.49919 7.38767 6.8783 9.09906C6.88558 9.13173 6.89335 9.16431 6.90161 9.19668L8.14155 14.402C8.17044 14.519 8.15062 14.6427 8.08657 14.7447C8.0268 14.8509 7.9256 14.9275 7.80726 14.9563L2.60407 16.1899C0.898953 16.597 -0.153321 18.3091 0.253783 20.0142C0.594447 21.4413 1.86895 22.4489 3.3361 22.4511C3.58153 22.4511 9.2777 21.1244 9.2777 21.1244C9.93223 20.9578 10.5584 20.6946 11.1355 20.3436L15.3674 22.942C14.9104 24.6211 14.9104 26.3919 15.3674 28.0711L11.1355 30.6695C10.5584 30.3184 9.93223 30.0553 9.2777 29.8886L4.0745 28.6487C2.39917 28.1329 0.622935 29.073 0.107158 30.7484C-0.408619 32.4237 0.531494 34.1999 2.20682 34.7157C2.33701 34.7557 2.46969 34.7874 2.60387 34.8104L7.80706 36.0504C7.9254 36.0792 8.0266 36.1559 8.08637 36.2619C8.15042 36.364 8.17024 36.4878 8.14135 36.6047L6.90151 41.8101C6.49252 43.5151 7.5431 45.2289 9.24811 45.6379C10.9531 46.0469 12.6669 44.9963 13.0759 43.2913L14.3158 38.086C14.463 37.4282 14.5108 36.752 14.4576 36.0801L18.7001 33.4711C19.7841 34.4097 21.0485 35.1168 22.4158 35.5489V40.5236C21.8156 40.8295 21.265 41.224 20.7823 41.6937L16.9968 45.4728C15.7569 46.7128 15.7569 48.723 16.9968 49.9629C18.2368 51.2029 20.247 51.2029 21.4869 49.9629L25.2703 46.1775C25.4454 46.0021 25.7294 46.0019 25.9047 46.1771L25.9051 46.1775L29.6885 49.9629C30.9284 51.2029 32.9386 51.2029 34.1785 49.9629C35.4185 48.723 35.4185 46.7128 34.1785 45.4728L30.3931 41.6895C29.9114 41.2215 29.3621 40.8285 28.7638 40.5235V35.5404C30.131 35.1083 31.3955 34.4011 32.4794 33.4625L36.7113 36.0715C36.6583 36.7428 36.7061 37.4182 36.8531 38.0753L38.093 43.2806C38.502 44.9856 40.2158 46.0362 41.9208 45.6272C43.6258 45.2182 44.6764 43.5044 44.2674 41.7994L43.0274 36.5941C42.9986 36.4771 43.0184 36.3534 43.0824 36.2514C43.1422 36.1452 43.2434 36.0686 43.3617 36.0398L48.5649 34.7999C50.2699 34.3909 51.3205 32.6771 50.9115 30.9721C50.5025 29.2671 48.7888 28.2165 47.0837 28.6255L47.105 28.6424ZM25.5897 29.7321C23.2525 29.7321 21.3578 27.8375 21.3578 25.5002C21.3578 23.163 23.2525 21.2683 25.5897 21.2683C27.927 21.2683 29.8216 23.163 29.8216 25.5002C29.8216 27.8375 27.927 29.7321 25.5897 29.7321Z" fill="#5867B4"/>
</g>
<defs>
<clipPath id="clip0_150_19">
<rect width="51" height="51" fill="white"/>
</clipPath>
</defs>
</svg>
