<svg width="68" height="68" viewBox="0 0 68 68" fill="none" xmlns="http://www.w3.org/2000/svg">
<path d="M64.5687 25.0751C63.2512 21.5107 60.1657 19.4112 56.4484 19.5642C53.6094 19.6549 50.7676 19.7314 47.9314 19.788C46.6706 19.8957 45.4777 18.9834 45.0867 17.7254C44.2452 15.0054 43.4009 12.2882 42.5424 9.57388C41.3864 5.88772 38.0346 3.50488 34.0056 3.50488C29.9766 3.50488 26.6247 5.88772 25.4687 9.57105C24.6074 12.2854 23.7631 15.0025 22.9244 17.7225C22.5334 18.9834 21.3944 19.9014 20.0797 19.788C17.2407 19.7314 14.3989 19.6577 11.5911 19.567C7.87655 19.4197 4.75139 21.5164 3.43672 25.0779C2.00022 28.9652 3.20722 33.2747 6.45705 35.8134C8.75772 37.5785 11.0386 39.3012 13.3166 41.0012C14.3989 41.8087 14.8154 43.2537 14.3564 44.5995C13.4101 47.3734 12.4212 50.1586 11.3984 52.9465C10.0044 56.6327 10.9961 60.4747 13.9257 62.73C17.0141 65.1129 21.3916 65.076 24.8256 62.628L32.0732 57.4232C33.2462 56.5845 34.7649 56.5817 35.9407 57.4232L43.1997 62.6366C44.9366 63.8719 46.917 64.4924 48.8494 64.4924C50.7307 64.4924 52.5667 63.9059 54.0882 62.7329C57.0151 60.4776 58.0067 56.6355 56.6241 52.972C55.5899 50.1614 54.6067 47.3734 53.6576 44.6024C53.1957 43.2594 53.6151 41.8144 54.6946 41.0069C56.9754 39.3041 59.259 37.5814 61.5767 35.802C64.8067 33.2775 66.0137 28.9681 64.5772 25.0807L64.5687 25.0751Z" fill="black"/>
</svg>
