<svg width="54" height="55" viewBox="0 0 54 55" fill="none" xmlns="http://www.w3.org/2000/svg">
<path d="M3 27.5H5.66667M27 3.5V6.16667M48.3333 27.5H51M27 48.8333V51.5M9.93333 10.4333L11.8 12.3M44.0667 10.4333L42.2 12.3M42.2 42.7L44.0667 44.5667M11.8 42.7L9.93333 44.5667M16.3333 27.5C16.3333 30.329 17.4571 33.0421 19.4575 35.0425C21.4579 37.0429 24.171 38.1667 27 38.1667C29.829 38.1667 32.5421 37.0429 34.5425 35.0425C36.5429 33.0421 37.6667 30.329 37.6667 27.5C37.6667 24.671 36.5429 21.9579 34.5425 19.9575C32.5421 17.9571 29.829 16.8333 27 16.8333C24.171 16.8333 21.4579 17.9571 19.4575 19.9575C17.4571 21.9579 16.3333 24.671 16.3333 27.5Z" stroke="#5867B4" stroke-width="5.33333" stroke-linecap="round" stroke-linejoin="round"/>
</svg>
