<svg width="51" height="51" viewBox="0 0 51 51" fill="none" xmlns="http://www.w3.org/2000/svg">
<path d="M33.677 34.865L22.9266 51.0023H20.3788L23.375 40.3773H16.8364C16.5304 40.3771 16.2287 40.3053 15.9554 40.1677C15.6821 40.0301 15.4447 39.8304 15.2624 39.5847C15.0801 39.3389 14.9578 39.054 14.9052 38.7525C14.8527 38.451 14.8715 38.1415 14.96 37.8485L20.6125 21.2523H29.75L25.5765 31.8773H32.0726C32.4205 31.8775 32.7617 31.9719 33.0602 32.1505C33.3586 32.3292 33.6031 32.5853 33.7677 32.8917C33.9322 33.1982 34.0107 33.5434 33.9947 33.8909C33.9787 34.2383 33.869 34.575 33.677 34.865ZM51 26.5648C50.9755 30.8155 49.3683 34.9046 46.4919 38.0344C43.6156 41.1641 39.6764 43.1101 35.4429 43.4925L32.9056 43.6859L37.2173 37.2153C37.3518 37.0137 37.4678 36.8004 37.5636 36.5778L38.5093 36.174C40.3333 35.3017 41.8746 33.9329 42.9563 32.2246C44.038 30.5164 44.6164 28.5378 44.625 26.5159C44.6031 23.9733 43.5731 21.5434 41.761 19.7596C39.949 17.9759 37.5031 16.9842 34.9605 17.0023L32.6613 16.9279L32.0068 14.7222C31.3494 12.3958 29.9742 10.3365 28.0773 8.83798C26.1804 7.33945 23.8587 6.47827 21.4434 6.37729C20.0269 6.33236 18.616 6.57501 17.2959 7.09058C15.9758 7.60615 14.7738 8.38395 13.7627 9.37699C12.7516 10.37 11.9523 11.5577 11.413 12.8683C10.8737 14.1789 10.6056 15.5852 10.625 17.0023C10.5512 18.456 10.728 19.9116 11.1478 21.3054L12.1678 23.9787L9.61775 25.2792C8.6399 25.775 7.81896 26.5327 7.2464 27.4677C6.67384 28.4027 6.37217 29.4783 6.375 30.5747C6.37514 31.7828 6.70135 32.9686 7.3192 34.0068C7.93706 35.0451 8.82367 35.8973 9.8855 36.4737L10.8439 36.8987C10.3564 38.6718 10.5711 40.5646 11.4431 42.1835C11.8546 42.8955 12.3792 43.5357 12.9965 44.079C12.004 43.8627 11.0231 43.5961 10.0576 43.28C7.19736 42.6005 4.64938 40.9772 2.82468 38.6722C0.999967 36.3671 0.00491006 33.5146 2.43252e-06 30.5747V30.5513C-0.00114714 28.7259 0.40517 26.9232 1.18932 25.2747C1.97347 23.6263 3.11567 22.1737 4.53263 21.0228C4.33187 19.6923 4.23736 18.3478 4.25 17.0023C4.23838 14.7502 4.6766 12.5185 5.53896 10.438C6.40131 8.35759 7.67044 6.47028 9.2719 4.88684C10.8734 3.30339 12.7749 2.05569 14.865 1.21692C16.955 0.378151 19.1916 -0.0347988 21.4434 0.00229469C24.8627 0.0690916 28.1888 1.12928 31.016 3.05361C33.8433 4.97795 36.0496 7.68328 37.366 10.8398C41.1581 11.364 44.6309 13.2473 47.1386 16.1397C49.6464 19.0321 51.0186 22.7367 51 26.5648ZM0.0106274 30.5747H2.43252e-06C2.43252e-06 30.6023 2.43227e-06 30.6129 0.0106274 30.5747ZM6.375 30.5747C6.375 30.6023 6.375 30.6129 6.375 30.5747V30.5747Z" fill="#5867B4"/>
</svg>
