<svg width="68" height="68" viewBox="0 0 68 68" fill="none" xmlns="http://www.w3.org/2000/svg">
<g clip-path="url(#clip0_97_216)">
<path d="M21.25 36.8333C18.7283 36.8333 16.2632 36.0856 14.1665 34.6846C12.0698 33.2836 10.4356 31.2923 9.47054 28.9626C8.50552 26.6328 8.25303 24.0692 8.74499 21.5959C9.23695 19.1227 10.4513 16.8508 12.2344 15.0677C14.0175 13.2846 16.2893 12.0703 18.7626 11.5783C21.2359 11.0864 23.7995 11.3389 26.1292 12.3039C28.459 13.2689 30.4502 14.9031 31.8512 16.9998C33.2522 19.0965 34 21.5616 34 24.0833C33.9963 27.4637 32.6517 30.7045 30.2615 33.0948C27.8712 35.4851 24.6304 36.8296 21.25 36.8333ZM42.5 56.6667C42.4955 52.9108 41.0015 49.3101 38.3457 46.6543C35.6899 43.9985 32.0892 42.5045 28.3333 42.5H14.1667C10.4108 42.5045 6.81008 43.9985 4.15429 46.6543C1.4985 49.3101 0.00449893 52.9108 0 56.6667L0 68H42.5V56.6667ZM49.5833 25.5C47.0616 25.5 44.5965 24.7522 42.4998 23.3512C40.4031 21.9503 38.7689 19.959 37.8039 17.6292C36.8388 15.2995 36.5864 12.7359 37.0783 10.2626C37.5703 7.78935 38.7846 5.51751 40.5677 3.73439C42.3508 1.95127 44.6227 0.736955 47.0959 0.244993C49.5692 -0.246968 52.1328 0.0055244 54.4625 0.970542C56.7923 1.93556 58.7836 3.56976 60.1846 5.66649C61.5856 7.76321 62.3333 10.2283 62.3333 12.75C62.3296 16.1304 60.9851 19.3712 58.5948 21.7615C56.2045 24.1518 52.9637 25.4963 49.5833 25.5ZM53.8333 31.1667H39.6667C39.1694 31.1895 38.6738 31.2396 38.182 31.3168C37.1518 33.7006 35.6302 35.8401 33.7167 37.5955C37.8712 38.771 41.5294 41.2687 44.1369 44.7101C46.7444 48.1515 48.1591 52.349 48.1667 56.6667H68V45.3333C67.9955 41.5775 66.5015 37.9768 63.8457 35.321C61.1899 32.6652 57.5892 31.1712 53.8333 31.1667Z" fill="black"/>
</g>
<defs>
<clipPath id="clip0_97_216">
<rect width="68" height="68" fill="white"/>
</clipPath>
</defs>
</svg>
