<svg width="51" height="51" viewBox="0 0 51 51" fill="none" xmlns="http://www.w3.org/2000/svg">
<g clip-path="url(#clip0_150_14)">
<path d="M14.875 22.3125H0V28.6875H14.875V22.3125Z" fill="#5867B4"/>
<path d="M39.3125 28.6875H21.25V22.3125H39.3125C45.2625 22.4102 46.9242 13.1856 40.375 12.75C39.2478 12.75 38.1668 13.1978 37.3698 13.9948C36.5728 14.7918 36.125 15.8728 36.125 17H29.75C29.7534 14.1831 30.8739 11.4826 32.8657 9.49072C34.8576 7.49887 37.5581 6.37837 40.375 6.375C55.3966 7.11025 53.7264 28.4877 39.3125 28.6875Z" fill="#5867B4"/>
<path d="M17.85 19.125H0V12.75H17.85C18.4804 12.75 19.0967 12.5631 19.6209 12.2128C20.1451 11.8626 20.5536 11.3647 20.7949 10.7823C21.0361 10.1999 21.0992 9.55896 20.9763 8.94065C20.8533 8.32234 20.5497 7.75438 20.1039 7.3086C19.6581 6.86282 19.0902 6.55924 18.4719 6.43625C17.8535 6.31326 17.2126 6.37638 16.6302 6.61763C16.0478 6.85889 15.5499 7.26744 15.1997 7.79162C14.8494 8.3158 14.6625 8.93207 14.6625 9.5625H8.2875C8.2875 7.02637 9.29498 4.59411 11.0883 2.80079C12.8816 1.00747 15.3139 0 17.85 0C20.3861 0 22.8184 1.00747 24.6117 2.80079C26.405 4.59411 27.4125 7.02637 27.4125 9.5625C27.4097 12.0978 26.4013 14.5284 24.6086 16.3211C22.8159 18.1138 20.3853 19.1222 17.85 19.125Z" fill="#5867B4"/>
<path d="M33.3625 51C30.8272 50.9972 28.3966 49.9888 26.6039 48.1961C24.8112 46.4034 23.8028 43.9728 23.8 41.4375H30.175C30.175 42.0679 30.3619 42.6842 30.7122 43.2084C31.0624 43.7326 31.5603 44.1411 32.1427 44.3824C32.7251 44.6236 33.366 44.6867 33.9844 44.5638C34.6027 44.4408 35.1706 44.1372 35.6164 43.6914C36.0622 43.2456 36.3658 42.6777 36.4888 42.0593C36.6117 41.441 36.5486 40.8001 36.3074 40.2177C36.0661 39.6353 35.6576 39.1374 35.1334 38.7872C34.6092 38.4369 33.9929 38.25 33.3625 38.25H0V31.875H33.3625C35.8986 31.875 38.3309 32.8825 40.1242 34.6758C41.9175 36.4691 42.925 38.9014 42.925 41.4375C42.925 43.9736 41.9175 46.4059 40.1242 48.1992C38.3309 49.9925 35.8986 51 33.3625 51Z" fill="#5867B4"/>
</g>
<defs>
<clipPath id="clip0_150_14">
<rect width="51" height="51" fill="white"/>
</clipPath>
</defs>
</svg>
